# xmcd
#
# Track frame offsets:
#	150
#	15670
#	31102
#	46749
#	62129
#	73840
#	91638
#	102607
#	117121
#	131086
#	142049
#
# Disc length: 2111
#
# Revision: 1
# Processed by: cddbd v1.5.1PL0 Copyright (c) Steve Scherf et al.
# Submitted via: VisiTrax 2.9.5.180 - For more info visit www.synapsa.com
# Normalized: r0:DSETVAR1
#
DISCID=94083d0b
DTITLE=Various Artist - CDX 282 January 2002
DYEAR=2002
DGENRE=
TTITLE0=Toby Keith - My list
TTITLE1=Alison Krauss-Union Station - Let me touch you for a while
TTITLE2=Ray Stevens - Osama Yo Mama
TTITLE3=Trick Pony - Just what I do
TTITLE4=Mike WAlker - Who's your daddy
TTITLE5=Johnny Rodriguez - I don't know how to love you
TTITLE6=Joe Stampley/Tony Stampley - If it ain't one thing (it's another)
TTITLE7=Ray Griff - Wrestlin' with shadows
TTITLE8=Clinton Gregor - My heart can't take this beating anmore
TTITLE9=Hank Adam Locklin - Hot pepper doll
TTITLE10=Kevin Morgan - Fallen heroes
EXTD=
EXTT0=
EXTT1=
EXTT2=
EXTT3=
EXTT4=
EXTT5=
EXTT6=
EXTT7=
EXTT8=
EXTT9=
EXTT10=
PLAYORDER=
